<?xml version="1.0" encoding="UTF-8" standalone="no"?>
<!-- Created with Inkscape (http://www.inkscape.org/) -->

<svg
   width="180"
   height="180"
   viewBox="0 0 180 180"
   version="1.1"
   id="svg1"
   sodipodi:docname="b.svg"
   inkscape:version="1.4.2 (f4327f4, 2025-05-13)"
   xmlns:inkscape="http://www.inkscape.org/namespaces/inkscape"
   xmlns:sodipodi="http://sodipodi.sourceforge.net/DTD/sodipodi-0.dtd"
   xmlns="http://www.w3.org/2000/svg"
   xmlns:svg="http://www.w3.org/2000/svg">
  <sodipodi:namedview
     id="namedview1"
     pagecolor="#ffffff"
     bordercolor="#000000"
     borderopacity="0.25"
     inkscape:showpageshadow="2"
     inkscape:pageopacity="0.0"
     inkscape:pagecheckerboard="0"
     inkscape:deskcolor="#d1d1d1"
     inkscape:zoom="7.0666667"
     inkscape:cx="95.448113"
     inkscape:cy="79.245283"
     inkscape:window-width="2560"
     inkscape:window-height="1566"
     inkscape:window-x="-11"
     inkscape:window-y="-11"
     inkscape:window-maximized="1"
     inkscape:current-layer="svg1" />
  <defs
     id="defs1" />
  <path
     d="m 77.521922,12.62836 -5.191261,5.575577 C 66.52414,12.438714 61.717416,8.0958344 57.910491,5.1752938 l 4.729816,-5.29110823 C 67.985382,3.8667401 72.945922,8.1147978 77.521922,12.62836 Z m -8.132976,8.249578 -5.421983,5.575575 C 56.814558,19.398704 52.046288,14.828247 49.662154,12.742148 l 4.499093,-5.1204278 c 4.422185,3.1860438 9.498085,7.6047818 15.227699,13.2562178 z"
     id="text17"
     style="font-size:64px;font-family:'Microsoft YaHei';-inkscape-font-specification:'Microsoft YaHei';display:inline;stroke-width:1.83314"
     aria-label="ãŽ" />
  <path
     id="text19"
     style="font-size:64px;font-family:'Microsoft YaHei';-inkscape-font-specification:'Microsoft YaHei';display:inline;stroke-width:3.0576"
     d="m 14.119141,16.527344 a 0.93684784,0.93684784 0 0 0 -0.9375,0.9375 V 163.28711 a 0.93684784,0.93684784 0 0 0 0.9375,0.9375 h 9.759765 a 0.93684784,0.93684784 0 0 0 0.9375,-0.9375 v -13.39453 h 36.708985 a 0.93684784,0.93684784 0 0 0 0.9375,-0.9375 V 17.464844 a 0.93684784,0.93684784 0 0 0 -0.9375,-0.9375 z m 10.697265,10.86914 h 1.0625 24.949219 V 76.533203 H 24.816406 Z m 0,60.00586 h 1.0625 24.949219 v 51.619136 c -8.670574,0 -17.341146,0 -26.011719,0 z" />
</svg>
