<?xml version="1.0" encoding="UTF-8" standalone="no"?>
<!-- Created with Inkscape (http://www.inkscape.org/) -->

<svg
   width="180"
   height="180"
   viewBox="0 0 180 180"
   version="1.1"
   id="svg1"
   sodipodi:docname="g.svg"
   inkscape:version="1.4.2 (f4327f4, 2025-05-13)"
   xmlns:inkscape="http://www.inkscape.org/namespaces/inkscape"
   xmlns:sodipodi="http://sodipodi.sourceforge.net/DTD/sodipodi-0.dtd"
   xmlns="http://www.w3.org/2000/svg"
   xmlns:svg="http://www.w3.org/2000/svg">
  <sodipodi:namedview
     id="namedview1"
     pagecolor="#ffffff"
     bordercolor="#000000"
     borderopacity="0.25"
     inkscape:showpageshadow="2"
     inkscape:pageopacity="0.0"
     inkscape:pagecheckerboard="0"
     inkscape:deskcolor="#d1d1d1"
     inkscape:zoom="4.9968879"
     inkscape:cx="109.16795"
     inkscape:cy="81.650821"
     inkscape:window-width="2560"
     inkscape:window-height="1566"
     inkscape:window-x="-11"
     inkscape:window-y="-11"
     inkscape:window-maximized="1"
     inkscape:current-layer="svg1" />
  <defs
     id="defs1" />
  <path
     d="m 75.033065,13.477458 -5.053799,5.853901 C 64.3265,13.278344 59.647056,8.718672 55.940938,5.6523416 L 60.545509,0.09710763 C 65.749049,4.2784664 70.578234,8.738582 75.033065,13.477458 Z m -7.917618,8.661384 -5.278411,5.853903 C 54.874024,20.585766 50.232017,15.787158 47.911013,13.596924 l 4.379958,-5.3760335 c 4.305087,3.3450875 9.24658,7.9844055 14.824476,13.9179515 z"
     id="text17"
     style="font-size:64px;font-family:'Microsoft YaHei';-inkscape-font-specification:'Microsoft YaHei';display:inline;stroke-width:1.85332"
     aria-label="ãŽ" />
  <path
     id="text22"
     style="font-size:64px;font-family:'Microsoft YaHei';-inkscape-font-specification:'Microsoft YaHei';stroke-width:2.48637"
     d="m 44.871094,10.181641 a 1.151642,1.151642 0 0 0 -1.152344,1.152343 v 77.019532 a 1.151642,1.151642 0 0 0 0.02344,0.224609 c 0.03248,0.163083 0.009,0.191675 0.01172,0.185547 0.0027,-0.0061 0.01571,0.01111 -0.117187,0.08398 A 1.151642,1.151642 0 0 0 43.4375,88.986328 C 32.710277,98.2491 21.77332,107.26883 10.572266,115.94336 a 1.151642,1.151642 0 0 0 -0.232422,1.58008 l 5.46289,7.65039 A 1.151642,1.151642 0 0 0 17.5,125.36914 c 8.774742,-7.69225 17.498443,-15.43733 26.21875,-23.18555 v 62.23243 a 1.151642,1.151642 0 0 0 1.152344,1.15234 h 8.101562 A 1.151642,1.151642 0 0 0 54.125,164.41602 V 11.333984 A 1.151642,1.151642 0 0 0 52.972656,10.181641 Z M 21.751953,36.029297 c -0.584621,-0.163619 -0.924911,0.02888 -1.154297,0.136719 -0.45829,0.215456 -0.832866,0.413176 -0.621094,0.355468 a 1.151642,1.151642 0 0 0 -0.208984,0.08008 l -5.621094,2.792969 a 1.151642,1.151642 0 0 0 -0.533203,1.517578 c 5.091655,10.938785 9.361293,22.258447 13.296875,33.695313 a 1.151642,1.151642 0 0 0 1.591797,0.660156 l 7.859375,-3.818359 A 1.151642,1.151642 0 0 0 36.943359,70.03125 C 32.941917,58.693679 28.242802,47.584002 22.667969,36.910156 l 0.111328,0.328125 C 22.74223,37.0339 22.676693,36.805424 22.509766,36.568359 22.342838,36.331294 22.044264,36.111106 21.751953,36.029297 Z"
     transform="matrix(1,0,0,0.98919712,1.5798817,4.5534084)" />
</svg>
