<?xml version="1.0" encoding="UTF-8" standalone="no"?>
<!-- Created with Inkscape (http://www.inkscape.org/) -->

<svg
   width="180"
   height="180"
   viewBox="0 0 180 180"
   version="1.1"
   id="svg1"
   xmlns="http://www.w3.org/2000/svg"
   xmlns:svg="http://www.w3.org/2000/svg">
  <defs
     id="defs1" />
  <g
     id="g1"
     style="display:none">
    <path
       id="text4"
       style="font-size:64px;font-family:'Microsoft YaHei';-inkscape-font-specification:'Microsoft YaHei';display:inline;stroke-width:1.9079"
       d="m 72.539062,41.898438 c 3.102214,-10e-7 6.204428,0 9.306641,0 0,-6.601563 0,-13.203126 0,-19.804688 27.373697,0 54.747397,0 82.121097,0 0,6.601563 0,13.203125 0,19.804688 3.10156,0 6.20312,-10e-7 9.30468,0 0,-9.697917 0,-19.395834 0,-29.09375 -33.57747,-1e-6 -67.15494,0 -100.732418,0 0,9.697916 10e-7,19.395833 0,29.09375 z" />
  </g>
  <g
     id="g2"
     style="display:none">
    <path
       id="text5"
       style="font-size:64px;font-family:'Microsoft YaHei';-inkscape-font-specification:'Microsoft YaHei';display:inline;stroke-width:1.94576"
       d="m 70.886719,167.40234 c 3.481771,0 6.963541,0 10.445312,0 0,-2.95703 0,-5.91406 0,-8.87109 27.369139,0 54.738279,0 82.107419,0 0,2.95703 0,5.91406 0,8.87109 3.48177,0 6.96354,0 10.44532,0 0,-37.41145 0,-74.822913 0,-112.234371 -34.33269,0 -68.66537,0 -102.998051,0 0,37.411458 0,74.822921 0,112.234371 z M 83.332031,64.53125 c 26.702479,0 53.404949,0 80.107419,0 0,28.21224 0,56.42448 0,84.63672 -27.36914,0 -54.73828,0 -82.107419,0 0,-28.21224 0,-56.42448 0,-84.63672 0.666667,0 1.333334,0 2,0 z" />
  </g>
  <g
     id="g3"
     style="display:none">
    <path
       id="text6"
       style="font-size:64px;font-family:'Microsoft YaHei';-inkscape-font-specification:'Microsoft YaHei';display:inline;stroke-width:1.07973"
       d="M 118.87109,70.869141 A 1.8894275,1.8894275 0 0 0 116.98242,72.75 c -0.0117,2.732445 -0.0234,5.464913 -0.0352,8.197266 -0.0219,2.842172 -0.0651,5.687599 -0.10743,8.535156 H 90.164062 a 1.8894275,1.8894275 0 0 0 -1.888671,1.888672 v 4.904297 a 1.8894275,1.8894275 0 0 0 1.888671,1.888671 h 26.197268 c -0.43232,3.002898 -0.98682,5.948328 -2.00586,8.687498 a 1.8894275,1.8894275 0 0 0 -0.0117,0.0332 c -2.23437,6.38279 -6.31958,12.08688 -11.46094,16.54687 a 1.8894275,1.8894275 0 0 0 -0.008,0.008 c -4.316178,3.78675 -9.320294,6.80538 -14.59375,9.27149 a 1.8894275,1.8894275 0 0 0 -0.675781,2.89062 c 1.287282,1.61147 2.558253,3.21566 3.771484,4.84375 a 1.8894275,1.8894275 0 0 0 2.410156,0.53516 c 8.610581,-4.63 16.773901,-10.73384 22.511721,-19.00977 l 0.002,-0.004 c 2.32671,-3.28609 4.04567,-6.89191 5.46485,-10.57227 1.16961,2.92261 2.42446,5.85831 4.17578,8.66016 4.18337,6.99296 10.22167,12.80814 17.32421,16.77539 0.71086,0.4046 1.6638,0.91882 2.50782,1.33789 h -0.004 c 1.07539,0.53665 2.17394,1.05414 3.30078,1.5332 a 1.8894275,1.8894275 0 0 0 2.21289,-0.55664 c 1.39329,-1.73989 2.95342,-3.39016 4.57422,-5.0293 a 1.8894275,1.8894275 0 0 0 -0.74414,-3.11914 c -8.27766,-2.77216 -15.97445,-7.63749 -21.1582,-14.56054 a 1.8894275,1.8894275 0 0 0 -0.01,-0.0137 c -4.03128,-5.27795 -6.51508,-11.65892 -7.9082,-18.257818 h 27.24609 a 1.8894275,1.8894275 0 0 0 1.88867,-1.888671 v -4.904297 a 1.8894275,1.8894275 0 0 0 -1.88867,-1.888672 h -27.5 c 0.0827,-5.572415 0.14505,-11.146253 0.14844,-16.722656 a 1.8894275,1.8894275 0 0 0 -1.88867,-1.890625 z" />
  </g>
  <g
     id="g4"
     style="display:none">
    <path
       id="text3"
       style="font-size:64px;font-family:'Microsoft YaHei';-inkscape-font-specification:'Microsoft YaHei';display:none;stroke-width:2.84296"
       d="m 8.6757812,21.591797 c 15.0156248,0 30.0312498,0 45.0468748,0 0,11.046224 0,22.092448 0,33.138672 -13.492187,0 -26.984375,0 -40.476562,0 -1.63737,16.42513 -3.2747398,32.85026 -4.9121096,49.275391 14.4303386,0 28.8606766,0 43.2910156,0 -0.634592,13.16184 -1.310443,26.34793 -3.140974,39.40715 -0.460842,4.00693 -2.035569,8.12511 -5.329187,10.64162 -3.338054,2.63798 -7.765066,3.23155 -11.896575,3.07492 -6.914055,-0.0935 -13.815869,-0.58637 -20.70553,-1.14322 0.826672,3.47264 1.573179,6.96526 2.208985,10.47851 7.937461,0.21858 15.877232,0.49804 23.818359,0.44727 5.251982,-0.16168 10.75076,-1.50133 14.726247,-5.11952 4.083334,-3.67268 6.030404,-9.1042 6.853008,-14.40901 0.572511,-4.06697 0.709124,-8.18001 1.071638,-12.26862 0.936223,-12.93755 1.787141,-25.87376 2.626451,-38.83371 -14.36849,0 -28.736979,0 -43.105469,0 1.110496,-11.275803 2.214862,-22.55221 3.324219,-33.828125 10.548828,0 21.097656,0 31.646484,0 0,1.781901 0,3.563802 0,5.345703 3.183594,0 6.367188,0 9.550782,0 0,-17.977213 -10e-7,-35.954427 0,-53.93164 -18.199219,-1e-6 -36.398438,0 -54.5976568,0 1e-7,2.574869 0,5.149739 0,7.724609 z" />
    <path
       id="text9"
       style="font-size:64px;font-family:'Microsoft YaHei';-inkscape-font-specification:'Microsoft YaHei';display:none;stroke-width:2.64129"
       d="M 51.001953,11.090821 C 40.514935,27.70329 26.955255,42.236691 11.550781,54.258407 c 1.637448,2.951216 3.222362,5.932836 4.712891,8.963003 C 33.151331,49.210033 48.201048,32.87293 60.457031,14.559733 57.647786,12.855602 54.838542,11.151471 52.029297,9.4473401 51.686849,9.9951665 51.344401,10.542994 51.001953,11.090821 Z M 55.259766,50.49877 C 44.53892,69.327964 31.784461,87.198238 15.837464,101.85991 c -1.705276,1.56238 -3.442365,3.08998 -5.22223,4.56469 1.466476,3.07286 2.838474,6.19222 4.111328,9.35261 7.094142,-6.36371 13.717984,-13.24417 20.044718,-20.384563 0.619209,-0.686183 1.238418,-1.372364 1.857626,-2.058547 0,24.44983 0,48.89966 0,73.34949 3.250651,0 6.501302,0 9.751953,0 0,-28.58128 0,-57.16255 0,-85.743831 6.235952,-8.34695 12.017682,-17.040465 17.316407,-26.026729 -2.710287,-1.653369 -5.420573,-3.30674 -8.13086,-4.960109 -0.102213,0.181949 -0.204427,0.3639 -0.30664,0.545849 z" />
    <path
       id="text10"
       style="font-size:64px;font-family:'Microsoft YaHei';-inkscape-font-specification:'Microsoft YaHei';display:none;stroke-width:1.83854"
       d="m 12.734375,12.345703 v 10.896484 h 42.037109 a 0.79001935,0.79001935 0 0 1 0.705078,1.146485 c -15.216615,30.018753 -28.252677,60.15316 -39.107421,86.404298 -4.28952,10.78707 -6.4277347,21.24742 -6.4277347,31.39258 -1e-7,8.25578 1.7446257,14.42909 4.6406247,18.55468 2.896,4.1256 6.91435,6.25637 11.744141,6.49024 9.896456,0.001 27.118029,0.68442 38.972656,0.5957 l 0.177734,-11.66601 c -10.550069,-0.007 -29.115455,-0.98031 -38.294921,-1.45899 a 0.79001935,0.79001935 0 0 1 -0.0039,0 c -3.355012,-0.19383 -5.609767,-1.63104 -6.800781,-4.11133 -1.191014,-2.48028 -1.455078,-5.86482 -1.455078,-10.23632 0,-5.89711 1.740191,-13.00444 5.175781,-21.36914 C 34.649098,93.380415 47.201299,62.686489 65.712891,26.943359 V 12.345703 Z" />
    <path
       d="M 10.649783,11.50425 H 58.998821 V 22.379338 H 21.643305 V 156.99896 H 60.11502 v 10.87509 H 10.649783 Z"
       id="text11"
       style="font-size:64px;font-family:'Microsoft YaHei';-inkscape-font-specification:'Microsoft YaHei';display:inline;stroke-width:1.65172"
       aria-label="匚" />
    <path
       id="text12"
       style="font-size:64px;font-family:'Microsoft YaHei';-inkscape-font-specification:'Microsoft YaHei';display:none;stroke-width:2.74689"
       d="M 40.808594,11.861328 C 29.982748,38.038282 19.521518,58.241524 9.3671875,72.46875 l 2.7597655,10.251953 c 8.393352,-0.770617 16.742326,-1.424581 25.033203,-1.927734 a 1.3334088,1.3334088 0 0 1 1.22461,2.015625 C 29.359269,97.873396 20.764377,110.0698 12.5625,119.48047 l 2.308594,11.23828 c 21.652851,-3.72363 37.527231,-6.34872 47.441406,-7.8457 0.288567,-3.68707 0.706486,-7.24438 1.207031,-10.7168 -12.102402,2.18749 -23.51996,4.10712 -34.001953,5.66211 a 1.3334088,1.3334088 0 0 1 -1.291016,-2.07813 C 40.658094,97.804285 53.261583,77.844782 66.025391,55.970703 L 55.992187,50.761719 C 52.278024,58.00346 48.625924,64.902365 45.060547,71.3125 a 1.3334088,1.3334088 0 0 1 -1.128906,0.683594 c -6.236498,0.175033 -13.171397,0.34845 -20.810547,0.523437 A 1.3334088,1.3334088 0 0 1 21.957031,70.484375 C 29.511895,58.318598 39.264868,40.050871 51.0625,16.066406 Z M 62.291016,144.65625 c -17.731787,4.82147 -35.414168,9.18207 -53.0468754,13.06641 l 2.9785154,10.83007 c 13.412841,-4.14988 29.930701,-8.60669 49.667969,-13.38671 0.02089,-3.35123 0.170673,-6.87563 0.400391,-10.50977 z" />
    <path
       id="text13"
       style="font-size:64px;font-family:'Microsoft YaHei';-inkscape-font-specification:'Microsoft YaHei';display:none;stroke-width:2.58405"
       d="M 51.449219,9.6777344 C 42.88844,37.360776 30.501316,62.270203 14.25,84.347656 c 1.388602,3.767587 2.683527,7.391927 3.947266,10.972656 5.098391,-6.512591 10.015334,-13.471026 14.6875,-21.033203 a 1.5322967,1.5322967 0 0 1 2.833984,0.804688 v 89.718753 h 9.212891 V 52.804687 a 1.5322967,1.5322967 0 0 1 0.158203,-0.677734 C 50.986531,40.178404 56.467526,27.117684 61.572266,13.052734 Z" />
    <path
       id="text14"
       style="font-size:64px;font-family:'Microsoft YaHei';-inkscape-font-specification:'Microsoft YaHei';display:none;stroke-width:2.31634"
       d="m 31.033203,31.804687 v 95.005863 a 0.39500968,0.39500968 0 0 1 -0.378906,0.39453 l -10.214844,0.38672 a 0.39500968,0.39500968 0 0 1 -0.410156,-0.39453 V 56.494141 H 9.6308594 v 78.828129 l 42.3945316,-1.40821 a 0.39500968,0.39500968 0 0 1 0.408203,0.39453 v 5.29297 H 62.832031 V 80.53125 56.494141 H 52.433594 v 69.541019 a 0.39500968,0.39500968 0 0 1 -0.378907,0.39453 l -10.21289,0.38672 a 0.39500968,0.39500968 0 0 1 -0.410156,-0.39453 V 31.804687 Z" />
    <path
       id="text1"
       style="font-size:64px;font-family:'Microsoft YaHei';-inkscape-font-specification:'Microsoft YaHei';display:none;stroke-width:2.57497"
       d="M 36.53125,8.3105469 26.214844,13.492188 c 3.863073,6.661062 7.725555,13.95979 11.585937,21.90039 L 48.880859,29.746094 C 44.812546,22.402587 40.696485,15.257016 36.53125,8.3105469 Z M 11.96875,40.943359 v 10.564453 h 34.191406 a 0.56550876,0.56550876 0 0 1 0.509766,0.810547 C 37.552677,71.435774 25.259933,87.498045 9.8125,100.50391 c 1.442966,4.71609 2.68625,9.02694 3.777344,13.02734 6.309431,-6.1054 12.151006,-12.28162 17.470703,-18.535156 a 0.56550876,0.56550876 0 0 1 0.998047,0.367187 V 167.49023 H 42.724609 V 105.0293 a 0.56550876,0.56550876 0 0 1 0.939453,-0.42383 c 5.382966,4.74593 10.870807,9.86419 16.453125,15.32617 l 6.779297,-9.25976 c -4.787199,-3.5653 -9.529581,-7.08539 -14.216797,-10.54883 a 0.56550876,0.56550876 0 0 1 -0.09766,-0.818363 c 5.073685,-6.065766 9.929849,-11.963771 14.59961,-17.720703 l -8.888672,-6.279297 c -3.705761,6.647128 -7.799118,13.071997 -12.3125,19.25586 a 0.56550876,0.56550876 0 0 1 -0.789063,0.123047 l -2.232422,-1.625 A 0.56550876,0.56550876 0 0 1 42.724609,92.601562 V 80.175781 a 0.56550876,0.56550876 0 0 1 0.103516,-0.324219 C 49.269821,70.65284 54.651756,61.29522 58.986328,51.78125 V 40.943359 Z" />
  </g>
  <path
     d="m 126.1465,141.42681 c 3.85417,-1.22917 7.60417,-2.45833 11.25,-3.6875 v -14.625 h -10.25 v -4.75 h 10.25 v -12 h 5 v 12 h 9.3125 v 4.75 h -9.3125 v 12.90625 c 3.45833,-1.1875 6.83333,-2.38542 10.125,-3.59375 0.125,2.125 0.29167,3.79167 0.5,5 -3.58333,1.25 -7.125,2.51042 -10.625,3.78125 v 18.40625 c 0,4.54167 -2.16667,6.8125 -6.5,6.8125 -1.875,0 -4.27083,-0.0208 -7.1875,-0.0625 -0.20833,-1.75 -0.45833,-3.5 -0.75,-5.25 2.08333,0.29167 4.3125,0.4375 6.6875,0.4375 1.83333,0 2.75,-1 2.75,-3 v -15.5625 c -3.3125,1.20833 -6.58333,2.41667 -9.8125,3.625 z"
     id="text8"
     style="font-size:64px;font-family:'Microsoft YaHei';-inkscape-font-specification:'Microsoft YaHei';display:none"
     aria-label="打" />
  <path
     d="M 95.821377,-0.28457618 H 108.69638 V -16.909576 H 97.383877 v -4.5 h 27.625003 v 4.5 h -11.5625 v 16.62499982 h 13.75 V 4.2154238 h -13.75 V 26.902924 h -4.75 V 4.2154238 H 95.821377 Z"
     id="text15"
     style="font-size:64px;font-family:'Microsoft YaHei';-inkscape-font-specification:'Microsoft YaHei';display:none"
     aria-label="赶" />
  <path
     d="m 118.76517,105.75945 h 5 v 51.9375 c 0,5.08333 -2.52083,7.64583 -7.5625,7.6875 -1.75,0 -5.02083,-0.0208 -9.8125,-0.0625 -0.20833,-1.91667 -0.54167,-3.8125 -1,-5.6875 4.41667,0.375 7.52083,0.5625 9.3125,0.5625 2.70833,0 4.0625,-1.33333 4.0625,-4 z m -8.25,44.0625 h -4.8125 v -38.5 h 4.8125 z"
     id="text16"
     style="font-size:64px;font-family:'Microsoft YaHei';-inkscape-font-specification:'Microsoft YaHei';display:none"
     aria-label="创" />
  <path
     d="m 72.839972,11.610529 -2.8125,3.0625 c -3.145833,-3.166667 -5.75,-5.5520828 -7.8125,-7.1562498 l 2.5625,-2.90625 c 2.895833,2.1875 5.583333,4.520833 8.0625,6.9999998 z m -4.40625,4.53125 -2.9375,3.0625 c -3.875,-3.875 -6.458333,-6.385417 -7.75,-7.53125 l 2.4375,-2.8124998 c 2.395833,1.7499998 5.145833,4.1770828 8.25,7.2812498 z"
     id="text17"
     style="font-size:64px;font-family:'Microsoft YaHei';-inkscape-font-specification:'Microsoft YaHei';display:none"
     aria-label="ぎ" />
  <path
     d="m 66.312873,4.4501716 c 1.895833,0 3.489583,0.65625 4.78125,1.96875 1.291667,1.3125 1.9375,2.916667 1.9375,4.8125004 0,1.770833 -0.635417,3.333333 -1.90625,4.6875 -1.25,1.354167 -2.9375,2.03125 -5.0625,2.03125 -1.75,0 -3.28125,-0.677083 -4.59375,-2.03125 -1.291667,-1.354167 -1.9375,-2.927083 -1.9375,-4.71875 0,-1.8541674 0.645833,-3.4375004 1.9375,-4.7500004 1.291667,-1.333333 2.90625,-2 4.84375,-2 z m -0.1875,10.6875004 c 1.229167,0 2.21875,-0.385417 2.96875,-1.15625 0.75,-0.791667 1.125,-1.729167 1.125,-2.8125 0,-1.020833 -0.364583,-1.9270834 -1.09375,-2.7187504 -0.708333,-0.791667 -1.552083,-1.1875 -2.53125,-1.1875 -1.25,0 -2.260417,0.385417 -3.03125,1.15625 -0.770833,0.75 -1.15625,1.6979174 -1.15625,2.8437504 0,1.125 0.385417,2.052083 1.15625,2.78125 0.791667,0.729167 1.645833,1.09375 2.5625,1.09375 z"
     id="text18"
     style="font-size:64px;font-family:'Microsoft YaHei';-inkscape-font-specification:'Microsoft YaHei';display:none"
     aria-label="ぱ" />
  <path
     id="text19"
     style="font-size:64px;font-family:'Microsoft YaHei';-inkscape-font-specification:'Microsoft YaHei';display:inline;stroke-width:3.0576"
     d="m 14.119141,16.527344 a 0.93684784,0.93684784 0 0 0 -0.9375,0.9375 V 163.28711 a 0.93684784,0.93684784 0 0 0 0.9375,0.9375 h 9.759765 a 0.93684784,0.93684784 0 0 0 0.9375,-0.9375 v -13.39453 h 36.708985 a 0.93684784,0.93684784 0 0 0 0.9375,-0.9375 V 17.464844 a 0.93684784,0.93684784 0 0 0 -0.9375,-0.9375 z m 10.697265,10.86914 h 1.0625 24.949219 V 76.533203 H 24.816406 Z m 0,60.00586 h 1.0625 24.949219 v 51.619136 c -8.670574,0 -17.341146,0 -26.011719,0 z" />
</svg>
