<?xml version="1.0" encoding="UTF-8" standalone="no"?>
<!-- Created with Inkscape (http://www.inkscape.org/) -->

<svg
   width="180"
   height="180"
   viewBox="0 0 180 180"
   version="1.1"
   id="svg1"
   sodipodi:docname="j.svg"
   inkscape:version="1.4.2 (f4327f4, 2025-05-13)"
   xmlns:inkscape="http://www.inkscape.org/namespaces/inkscape"
   xmlns:sodipodi="http://sodipodi.sourceforge.net/DTD/sodipodi-0.dtd"
   xmlns="http://www.w3.org/2000/svg"
   xmlns:svg="http://www.w3.org/2000/svg">
  <sodipodi:namedview
     id="namedview1"
     pagecolor="#ffffff"
     bordercolor="#000000"
     borderopacity="0.25"
     inkscape:showpageshadow="2"
     inkscape:pageopacity="0.0"
     inkscape:pagecheckerboard="0"
     inkscape:deskcolor="#d1d1d1"
     inkscape:zoom="3.5333333"
     inkscape:cx="1.5566038"
     inkscape:cy="117.73585"
     inkscape:window-width="2560"
     inkscape:window-height="1566"
     inkscape:window-x="-11"
     inkscape:window-y="-11"
     inkscape:window-maximized="1"
     inkscape:current-layer="svg1" />
  <defs
     id="defs1" />
  <path
     d="m 72.122066,16.979398 -5.449321,5.972686 C 60.577578,16.776244 55.53191,12.124053 51.53574,8.9955025 l 4.964938,-5.667957 C 62.11146,7.5937495 67.31859,12.144367 72.122066,16.979398 Z m -8.53727,8.837137 -5.691514,5.972685 C 50.385328,24.231945 45.380026,19.335967 42.877374,17.101289 l 4.722745,-5.485117 c 4.642014,3.412962 9.970239,8.146416 15.984677,14.200363 z"
     id="text17"
     style="font-size:64px;font-family:'Microsoft YaHei';-inkscape-font-specification:'Microsoft YaHei';display:inline;stroke-width:1.94389"
     aria-label="ぎ" />
  <path
     d="m 66.909861,88.640874 h -24.78392 c 0.04768,18.915826 -1.430384,34.426796 -4.434187,46.532926 -2.979964,12.10612 -10.093583,22.69898 -17.340857,31.77858 l -5.826274,-11.4368 c 6.460562,-7.97374 11.049708,-16.76233 13.767435,-26.36574 2.717727,-9.66162 4.112351,-23.16461 4.18387,-40.508966 H 5.8325112 V 76.985815 H 32.404409 V 40.492842 C 23.08308,42.995549 18.610598,44.363309 14.986962,44.596119 L 12.805628,32.504539 C 31.519804,30.700261 46.06203,26.160465 56.432306,18.885149 l 3.540197,11.655061 -17.703524,7.682734 v 38.762871 h 24.640882 z"
     id="text22"
     style="font-size:115.465px;font-family:'Microsoft YaHei';-inkscape-font-specification:'Microsoft YaHei';stroke-width:1.78797"
     aria-label="チ" />
</svg>
