<?xml version="1.0" encoding="UTF-8" standalone="no"?>
<!-- Created with Inkscape (http://www.inkscape.org/) -->

<svg
   width="180"
   height="180"
   viewBox="0 0 180 180"
   version="1.1"
   id="svg1"
   xmlns="http://www.w3.org/2000/svg"
   xmlns:svg="http://www.w3.org/2000/svg">
  <defs
     id="defs1" />
  <g
     id="g1"
     style="display:none">
    <path
       id="text4"
       style="font-size:64px;font-family:'Microsoft YaHei';-inkscape-font-specification:'Microsoft YaHei';display:inline;stroke-width:1.9079"
       d="m 72.539062,41.898438 c 3.102214,-10e-7 6.204428,0 9.306641,0 0,-6.601563 0,-13.203126 0,-19.804688 27.373697,0 54.747397,0 82.121097,0 0,6.601563 0,13.203125 0,19.804688 3.10156,0 6.20312,-10e-7 9.30468,0 0,-9.697917 0,-19.395834 0,-29.09375 -33.57747,-1e-6 -67.15494,0 -100.732418,0 0,9.697916 10e-7,19.395833 0,29.09375 z" />
  </g>
  <g
     id="g2"
     style="display:none">
    <path
       id="text5"
       style="font-size:64px;font-family:'Microsoft YaHei';-inkscape-font-specification:'Microsoft YaHei';display:inline;stroke-width:1.94576"
       d="m 70.886719,167.40234 c 3.481771,0 6.963541,0 10.445312,0 0,-2.95703 0,-5.91406 0,-8.87109 27.369139,0 54.738279,0 82.107419,0 0,2.95703 0,5.91406 0,8.87109 3.48177,0 6.96354,0 10.44532,0 0,-37.41145 0,-74.822913 0,-112.234371 -34.33269,0 -68.66537,0 -102.998051,0 0,37.411458 0,74.822921 0,112.234371 z M 83.332031,64.53125 c 26.702479,0 53.404949,0 80.107419,0 0,28.21224 0,56.42448 0,84.63672 -27.36914,0 -54.73828,0 -82.107419,0 0,-28.21224 0,-56.42448 0,-84.63672 0.666667,0 1.333334,0 2,0 z" />
  </g>
  <g
     id="g3"
     style="display:none">
    <path
       id="text6"
       style="font-size:64px;font-family:'Microsoft YaHei';-inkscape-font-specification:'Microsoft YaHei';display:inline;stroke-width:1.07973"
       d="M 118.87109,70.869141 A 1.8894275,1.8894275 0 0 0 116.98242,72.75 c -0.0117,2.732445 -0.0234,5.464913 -0.0352,8.197266 -0.0219,2.842172 -0.0651,5.687599 -0.10743,8.535156 H 90.164062 a 1.8894275,1.8894275 0 0 0 -1.888671,1.888672 v 4.904297 a 1.8894275,1.8894275 0 0 0 1.888671,1.888671 h 26.197268 c -0.43232,3.002898 -0.98682,5.948328 -2.00586,8.687498 a 1.8894275,1.8894275 0 0 0 -0.0117,0.0332 c -2.23437,6.38279 -6.31958,12.08688 -11.46094,16.54687 a 1.8894275,1.8894275 0 0 0 -0.008,0.008 c -4.316178,3.78675 -9.320294,6.80538 -14.59375,9.27149 a 1.8894275,1.8894275 0 0 0 -0.675781,2.89062 c 1.287282,1.61147 2.558253,3.21566 3.771484,4.84375 a 1.8894275,1.8894275 0 0 0 2.410156,0.53516 c 8.610581,-4.63 16.773901,-10.73384 22.511721,-19.00977 l 0.002,-0.004 c 2.32671,-3.28609 4.04567,-6.89191 5.46485,-10.57227 1.16961,2.92261 2.42446,5.85831 4.17578,8.66016 4.18337,6.99296 10.22167,12.80814 17.32421,16.77539 0.71086,0.4046 1.6638,0.91882 2.50782,1.33789 h -0.004 c 1.07539,0.53665 2.17394,1.05414 3.30078,1.5332 a 1.8894275,1.8894275 0 0 0 2.21289,-0.55664 c 1.39329,-1.73989 2.95342,-3.39016 4.57422,-5.0293 a 1.8894275,1.8894275 0 0 0 -0.74414,-3.11914 c -8.27766,-2.77216 -15.97445,-7.63749 -21.1582,-14.56054 a 1.8894275,1.8894275 0 0 0 -0.01,-0.0137 c -4.03128,-5.27795 -6.51508,-11.65892 -7.9082,-18.257818 h 27.24609 a 1.8894275,1.8894275 0 0 0 1.88867,-1.888671 v -4.904297 a 1.8894275,1.8894275 0 0 0 -1.88867,-1.888672 h -27.5 c 0.0827,-5.572415 0.14505,-11.146253 0.14844,-16.722656 a 1.8894275,1.8894275 0 0 0 -1.88867,-1.890625 z" />
  </g>
  <path
     d="M 8.8462669,101.20963 C 17.393822,98.09923 25.710355,94.988857 33.795865,91.878458 V 54.870085 H 11.06401 V 42.850272 H 33.795865 V 12.484427 H 44.884576 V 42.850272 H 65.5373 V 54.870085 H 44.884576 v 32.659099 c 7.669684,-3.004954 15.154564,-6.036275 22.45464,-9.093939 0.277217,5.377286 0.646849,9.594772 1.10887,12.652436 -7.946902,3.163109 -15.801412,6.352585 -23.56351,9.568409 v 46.57677 c 0,11.49264 -4.805115,17.23895 -14.415323,17.23895 -4.158267,0 -9.4716,-0.0527 -15.940022,-0.15816 -0.462022,-4.42835 -1.016458,-8.8567 -1.663306,-13.28506 4.620289,0.73807 9.564012,1.10709 14.83115,1.10709 4.065853,0 6.09879,-2.53048 6.09879,-7.59146 v -39.38071 c -7.34627,3.05767 -14.600127,6.11535 -21.761593,9.17302 z"
     id="text8"
     style="font-size:64px;font-family:'Microsoft YaHei';-inkscape-font-specification:'Microsoft YaHei';display:none;stroke-width:2.36895"
     aria-label="打" />
  <path
     id="text15"
     style="font-size:64px;font-family:'Microsoft YaHei';-inkscape-font-specification:'Microsoft YaHei';display:none;stroke-width:2.46426"
     d="m 11.154297,14.412109 v 10.861328 h 19.589844 a 0.55092258,0.55092258 0 0 1 0.550781,0.550782 V 81.40625 a 0.55092258,0.55092258 0 0 1 -0.550781,0.550781 H 8.0957031 V 92.816406 H 30.744141 a 0.55092258,0.55092258 0 0 1 0.550781,0.550781 V 163.20898 H 43.439453 V 93.367187 a 0.55092258,0.55092258 0 0 1 0.550781,-0.550781 h 24.41211 V 81.957031 H 43.990234 A 0.55092258,0.55092258 0 0 1 43.439453,81.40625 V 25.824219 a 0.55092258,0.55092258 0 0 1 0.550781,-0.550782 h 20.13086 V 14.412109 Z"
     transform="matrix(1,0,0,1.0092813,0,-0.12605841)" />
  <path
     id="text16"
     style="font-size:64px;font-family:'Microsoft YaHei';-inkscape-font-specification:'Microsoft YaHei';display:none;stroke-width:2.50744"
     d="m 14.396484,13.1875 v 132.98242 c 0,6.41759 1.501089,11.10424 4.388672,14.20313 2.887584,3.09888 7.23371,4.71323 13.236328,4.76562 4.135287,-3e-5 12.0872,-0.0553 23.203125,-0.15625 0.474536,-4.34112 1.193034,-8.63998 2.136719,-12.89844 -10.10424,0.89085 -17.432588,1.36524 -21.6875,1.36524 -3.449581,0 -6.19319,-0.91507 -8.039062,-2.83399 -1.845873,-1.91891 -2.712891,-4.74076 -2.712891,-8.31054 V 13.1875 Z M 46.730469,27.519531 V 125.04102 H 56.796875 V 27.519531 Z" />
  <path
     d="m 68.199069,15.856461 -2.8125,3.0625 c -3.145833,-3.166667 -5.75,-5.552083 -7.8125,-7.15625 l 2.5625,-2.9062497 c 2.895833,2.1874997 5.583333,4.5208327 8.0625,6.9999997 z m -4.40625,4.53125 -2.9375,3.0625 c -3.875,-3.875 -6.458333,-6.385417 -7.75,-7.53125 l 2.4375,-2.8125 c 2.395833,1.75 5.145833,4.177083 8.25,7.28125 z"
     id="text17"
     style="font-size:64px;font-family:'Microsoft YaHei';-inkscape-font-specification:'Microsoft YaHei';display:none"
     aria-label="ぎ" />
  <path
     d="m 66.312873,4.4501716 c 1.895833,0 3.489583,0.65625 4.78125,1.96875 1.291667,1.3125 1.9375,2.916667 1.9375,4.8125004 0,1.770833 -0.635417,3.333333 -1.90625,4.6875 -1.25,1.354167 -2.9375,2.03125 -5.0625,2.03125 -1.75,0 -3.28125,-0.677083 -4.59375,-2.03125 -1.291667,-1.354167 -1.9375,-2.927083 -1.9375,-4.71875 0,-1.8541674 0.645833,-3.4375004 1.9375,-4.7500004 1.291667,-1.333333 2.90625,-2 4.84375,-2 z m -0.1875,10.6875004 c 1.229167,0 2.21875,-0.385417 2.96875,-1.15625 0.75,-0.791667 1.125,-1.729167 1.125,-2.8125 0,-1.020833 -0.364583,-1.9270834 -1.09375,-2.7187504 -0.708333,-0.791667 -1.552083,-1.1875 -2.53125,-1.1875 -1.25,0 -2.260417,0.385417 -3.03125,1.15625 -0.770833,0.75 -1.15625,1.6979174 -1.15625,2.8437504 0,1.125 0.385417,2.052083 1.15625,2.78125 0.791667,0.729167 1.645833,1.09375 2.5625,1.09375 z"
     id="text18"
     style="font-size:64px;font-family:'Microsoft YaHei';-inkscape-font-specification:'Microsoft YaHei';display:none"
     aria-label="ぱ" />
  <path
     id="text19"
     style="font-size:64px;font-family:'Microsoft YaHei';-inkscape-font-specification:'Microsoft YaHei';display:none;stroke-width:3.0576"
     d="m 14.119141,16.527344 a 0.93684784,0.93684784 0 0 0 -0.9375,0.9375 V 163.28711 a 0.93684784,0.93684784 0 0 0 0.9375,0.9375 h 9.759765 a 0.93684784,0.93684784 0 0 0 0.9375,-0.9375 v -13.39453 h 36.708985 a 0.93684784,0.93684784 0 0 0 0.9375,-0.9375 V 17.464844 a 0.93684784,0.93684784 0 0 0 -0.9375,-0.9375 z m 10.697265,10.86914 h 1.0625 24.949219 V 76.533203 H 24.816406 Z m 0,60.00586 h 1.0625 24.949219 v 51.619136 c -8.670574,0 -17.341146,0 -26.011719,0 z" />
  <path
     d="M 7.7808028,50.568954 H 28.213795 C 28.352271,38.935398 28.444587,25.090321 28.490746,13.033725 H 36.51442 C 36.4221,24.244244 36.306706,38.08932 36.168231,50.568954 h 31.780073 c -0.553901,41.352009 -1.08472,68.594536 -1.592462,85.727596 -0.600061,18.19066 -4.846638,27.39175 -12.739728,27.60326 -3.78499,0 -8.354673,-0.21153 -13.70905,-0.63455 -0.184634,-4.12463 -0.199169,-3.45504 -0.706912,-9.37758 4.575105,1.10737 9.238463,0.31155 13.862062,0.0519 4.477367,-0.21152 4.946842,-9.86966 5.408426,-20.97442 0.553901,-18.93097 0.969327,-42.726879 1.246278,-71.387733 H 36.029756 C 35.61433,89.127745 33.698756,109.85663 30.283033,123.76402 26.636518,139.20492 19.109191,152.947 8.5389128,167.22456 7.246477,163.41723 4.2806539,162.5155 2.8035843,158.28511 12.819962,145.38244 19.397536,132.37401 22.536309,119.25982 25.790478,107.36187 27.613735,86.801054 28.006082,61.577386 H 7.7808028 Z"
     id="text20"
     style="font-size:107.319px;font-family:'Microsoft YaHei';-inkscape-font-specification:'Microsoft YaHei';stroke-width:1.67685"
     aria-label="力" />
</svg>
